<svg width="57" height="57" viewBox="0 0 57 57" fill="none" xmlns="http://www.w3.org/2000/svg">
<path d="M27.2085 36.0869H28.8532V37.6252H27.2085V36.0869Z" fill="#BB141B"/>
<path d="M27.2085 40.3896H28.8532V41.9279H27.2085V40.3896Z" fill="#BB141B"/>
<path d="M27.2085 44.6924H28.8532V46.2307H27.2085V44.6924Z" fill="#BB141B"/>
<path d="M27.2085 48.9951H28.8532V50.5334H27.2085V48.9951Z" fill="#BB141B"/>
<path d="M3.33999 43.8295V49.764H5.00258V43.8295C5.00258 37.2357 11.8574 35.7274 13.2472 34.7264V49.7635C13.2472 50.1882 13.6191 50.5326 14.0785 50.5326H17.498C17.9575 50.5326 18.3293 50.1882 18.3293 49.7635V32.2224L21.2178 30.7995L23.2313 36.4046C23.3343 36.6919 23.6104 36.8962 23.9363 36.9269C23.9648 36.93 23.9933 36.9312 24.0209 36.9312C24.3157 36.9312 24.591 36.7867 24.7403 36.5478L28.0318 31.292L31.3241 36.5478C31.4883 36.8092 31.7968 36.9627 32.1278 36.9273C32.4532 36.8966 32.7293 36.6923 32.8327 36.4049L34.8258 30.8578L37.5791 32.1854L37.5778 49.7638C37.5778 50.1885 37.9497 50.5329 38.4091 50.5329H41.8286C42.2881 50.5329 42.6599 50.1885 42.6599 49.7638V34.636C43.8442 35.4949 50.9045 37.076 50.9045 43.7083V49.7641H52.5671V43.7088C52.5671 37.0091 46.2663 34.6761 46.1696 34.5939V31.1588C46.1696 28.1095 43.492 25.6286 40.2009 25.6286H35.8817C37.2562 24.3604 38.264 22.7584 38.7775 20.9718C40.4511 18.8569 41.3394 16.3457 41.3394 13.6947C41.3389 6.86272 35.332 1.30566 27.9491 1.30566C20.571 1.30566 14.5676 6.86302 14.5676 13.6947C14.5676 16.4471 15.521 19.0426 17.3167 21.2154C17.8506 22.9044 18.8329 24.4178 20.1458 25.6286H15.706C12.4145 25.6286 9.73731 28.1095 9.73731 31.1588V34.7124C9.62202 34.8096 3.33984 37.2237 3.33984 43.83L3.33999 43.8295ZM40.9971 48.9949H39.2401L39.2405 32.9874L40.9975 33.8353L40.9971 48.9949ZM16.666 33.0439V48.9949H14.909L14.9094 33.9074C14.9928 33.8665 16.7804 32.9876 16.666 33.0439ZM24.2261 34.2987L22.8712 30.5275H26.5881L24.2261 34.2987ZM22.5504 28.9889V27.3098C24.1674 28.1548 26.0299 28.6429 28.0166 28.6429C29.9531 28.6429 31.7752 28.1816 33.3633 27.3738V28.9888L22.5504 28.9889ZM31.8357 34.2987L29.4733 30.5271H33.1907L31.8357 34.2987ZM44.506 31.1585V33.7917C41.1078 32.1527 38.8062 31.0432 35.0259 29.2199V27.1665H40.1999C42.5746 27.1669 44.506 28.9574 44.506 31.1585ZM27.9476 2.84364C34.4141 2.84364 39.6749 7.71107 39.6749 13.694C39.6749 14.7875 39.4962 15.8513 39.1618 16.8668V14.5969C39.1618 14.2305 38.8827 13.9148 38.4935 13.8428C35.8214 13.3472 34.0907 11.7294 33.2 8.89743C33.1051 8.59317 32.8175 8.37472 32.4768 8.34598C32.1309 8.32118 31.811 8.4861 31.6574 8.76911C29.1057 13.5102 24.595 15.1693 17.8653 13.8443C17.6241 13.7967 17.3646 13.8526 17.1697 13.9986C16.9749 14.1446 16.8613 14.3643 16.8613 14.5965V17.2353C16.4436 16.1104 16.2287 14.9193 16.2287 13.6932C16.2291 7.71116 21.4857 2.84394 27.9472 2.84394L27.9476 2.84364ZM18.5246 18.3221V15.5282C24.7647 16.524 29.3622 14.9751 32.2394 10.9221C33.3425 13.1539 35.1054 14.5895 37.4993 15.2038V18.3224C37.4993 23.1646 33.2451 27.1042 28.0078 27.1042C22.7784 27.1038 18.5247 23.1645 18.5247 18.322L18.5246 18.3221ZM11.3987 31.1574C11.3987 28.9563 13.3301 27.1655 15.7049 27.1655H20.8869V29.2181C18.1979 30.5427 14.1938 32.515 11.3987 33.8919V31.1574Z" fill="#BB141B"/>
</svg>
