<svg width="10" height="17" viewBox="0 0 10 17" fill="none" xmlns="http://www.w3.org/2000/svg">
<path d="M0.260786 7.87106L7.47299 0.659224C7.82071 0.311509 8.38477 0.311509 8.73248 0.659224L9.57376 1.50049C9.9211 1.84784 9.92147 2.41042 9.57524 2.7585L3.85928 8.50081L9.57487 14.2435C9.92147 14.5916 9.92073 15.1541 9.57338 15.5015L8.73211 16.3428C8.3844 16.6905 7.82034 16.6905 7.47262 16.3428L0.260786 9.13055C-0.0869287 8.78284 -0.0869287 8.21877 0.260786 7.87106Z" fill="#1D1D1D"/>
<path d="M0.260786 7.87106L7.47299 0.659224C7.82071 0.311509 8.38477 0.311509 8.73248 0.659224L9.57376 1.50049C9.9211 1.84784 9.92147 2.41042 9.57524 2.7585L3.85928 8.50081L9.57487 14.2435C9.92147 14.5916 9.92073 15.1541 9.57338 15.5015L8.73211 16.3428C8.3844 16.6905 7.82034 16.6905 7.47262 16.3428L0.260786 9.13055C-0.0869287 8.78284 -0.0869287 8.21877 0.260786 7.87106Z" fill="black" fill-opacity="0.2"/>
<path d="M0.260786 7.87106L7.47299 0.659224C7.82071 0.311509 8.38477 0.311509 8.73248 0.659224L9.57376 1.50049C9.9211 1.84784 9.92147 2.41042 9.57524 2.7585L3.85928 8.50081L9.57487 14.2435C9.92147 14.5916 9.92073 15.1541 9.57338 15.5015L8.73211 16.3428C8.3844 16.6905 7.82034 16.6905 7.47262 16.3428L0.260786 9.13055C-0.0869287 8.78284 -0.0869287 8.21877 0.260786 7.87106Z" fill="black" fill-opacity="0.2"/>
<path d="M0.260786 7.87106L7.47299 0.659224C7.82071 0.311509 8.38477 0.311509 8.73248 0.659224L9.57376 1.50049C9.9211 1.84784 9.92147 2.41042 9.57524 2.7585L3.85928 8.50081L9.57487 14.2435C9.92147 14.5916 9.92073 15.1541 9.57338 15.5015L8.73211 16.3428C8.3844 16.6905 7.82034 16.6905 7.47262 16.3428L0.260786 9.13055C-0.0869287 8.78284 -0.0869287 8.21877 0.260786 7.87106Z" fill="black" fill-opacity="0.2"/>
</svg>
