<svg width="10" height="17" viewBox="0 0 10 17" fill="none" xmlns="http://www.w3.org/2000/svg">
<path d="M9.57353 9.12883L2.36155 16.3408C2.01372 16.6886 1.44981 16.6886 1.10202 16.3408L0.260861 15.4996C-0.0863715 15.1524 -0.0870393 14.5896 0.259377 14.2416L5.975 8.49905L0.259377 2.75656C-0.0870393 2.40851 -0.0863715 1.84574 0.260861 1.49851L1.10202 0.657354C1.44985 0.309528 2.01376 0.309528 2.36155 0.657354L9.5735 7.8693C9.92132 8.21709 9.92132 8.78101 9.57353 9.12883Z" fill="#1D1D1D"/>
<path d="M9.57353 9.12883L2.36155 16.3408C2.01372 16.6886 1.44981 16.6886 1.10202 16.3408L0.260861 15.4996C-0.0863715 15.1524 -0.0870393 14.5896 0.259377 14.2416L5.975 8.49905L0.259377 2.75656C-0.0870393 2.40851 -0.0863715 1.84574 0.260861 1.49851L1.10202 0.657354C1.44985 0.309528 2.01376 0.309528 2.36155 0.657354L9.5735 7.8693C9.92132 8.21709 9.92132 8.78101 9.57353 9.12883Z" fill="black" fill-opacity="0.2"/>
<path d="M9.57353 9.12883L2.36155 16.3408C2.01372 16.6886 1.44981 16.6886 1.10202 16.3408L0.260861 15.4996C-0.0863715 15.1524 -0.0870393 14.5896 0.259377 14.2416L5.975 8.49905L0.259377 2.75656C-0.0870393 2.40851 -0.0863715 1.84574 0.260861 1.49851L1.10202 0.657354C1.44985 0.309528 2.01376 0.309528 2.36155 0.657354L9.5735 7.8693C9.92132 8.21709 9.92132 8.78101 9.57353 9.12883Z" fill="black" fill-opacity="0.2"/>
<path d="M9.57353 9.12883L2.36155 16.3408C2.01372 16.6886 1.44981 16.6886 1.10202 16.3408L0.260861 15.4996C-0.0863715 15.1524 -0.0870393 14.5896 0.259377 14.2416L5.975 8.49905L0.259377 2.75656C-0.0870393 2.40851 -0.0863715 1.84574 0.260861 1.49851L1.10202 0.657354C1.44985 0.309528 2.01376 0.309528 2.36155 0.657354L9.5735 7.8693C9.92132 8.21709 9.92132 8.78101 9.57353 9.12883Z" fill="black" fill-opacity="0.2"/>
</svg>
