<svg width="25" height="26" viewBox="0 0 25 26" fill="none" xmlns="http://www.w3.org/2000/svg">
<path d="M11.6722 6.87244L2.18298 16.3622C1.72546 16.8197 1.72546 17.5619 2.18298 18.0194L3.28992 19.1263C3.74695 19.5834 4.48718 19.5839 4.94519 19.1283L12.5009 11.6073L20.057 19.1278C20.515 19.5839 21.2552 19.5829 21.7123 19.1259L22.8192 18.0189C23.2767 17.5614 23.2767 16.8192 22.8192 16.3617L13.3295 6.87244C12.8719 6.41492 12.1298 6.41492 11.6722 6.87244Z" fill="#1D1D1D"/>
<path d="M11.6722 6.87244L2.18298 16.3622C1.72546 16.8197 1.72546 17.5619 2.18298 18.0194L3.28992 19.1263C3.74695 19.5834 4.48718 19.5839 4.94519 19.1283L12.5009 11.6073L20.057 19.1278C20.515 19.5839 21.2552 19.5829 21.7123 19.1259L22.8192 18.0189C23.2767 17.5614 23.2767 16.8192 22.8192 16.3617L13.3295 6.87244C12.8719 6.41492 12.1298 6.41492 11.6722 6.87244Z" fill="black" fill-opacity="0.2"/>
<path d="M11.6722 6.87244L2.18298 16.3622C1.72546 16.8197 1.72546 17.5619 2.18298 18.0194L3.28992 19.1263C3.74695 19.5834 4.48718 19.5839 4.94519 19.1283L12.5009 11.6073L20.057 19.1278C20.515 19.5839 21.2552 19.5829 21.7123 19.1259L22.8192 18.0189C23.2767 17.5614 23.2767 16.8192 22.8192 16.3617L13.3295 6.87244C12.8719 6.41492 12.1298 6.41492 11.6722 6.87244Z" fill="black" fill-opacity="0.2"/>
<path d="M11.6722 6.87244L2.18298 16.3622C1.72546 16.8197 1.72546 17.5619 2.18298 18.0194L3.28992 19.1263C3.74695 19.5834 4.48718 19.5839 4.94519 19.1283L12.5009 11.6073L20.057 19.1278C20.515 19.5839 21.2552 19.5829 21.7123 19.1259L22.8192 18.0189C23.2767 17.5614 23.2767 16.8192 22.8192 16.3617L13.3295 6.87244C12.8719 6.41492 12.1298 6.41492 11.6722 6.87244Z" fill="black" fill-opacity="0.2"/>
</svg>
