<svg width="25" height="20" viewBox="0 0 25 20" fill="none" xmlns="http://www.w3.org/2000/svg">
<path d="M24.5264 6.76172C24.7168 6.61035 25 6.75195 25 6.99121V16.9766C25 18.2705 23.9502 19.3203 22.6562 19.3203H2.34375C1.0498 19.3203 0 18.2705 0 16.9766V6.99609C0 6.75195 0.27832 6.61523 0.473633 6.7666C1.56738 7.61621 3.01758 8.69531 7.99805 12.3135C9.02832 13.0654 10.7666 14.6475 12.5 14.6377C14.2432 14.6523 16.0156 13.0361 17.0068 12.3135C21.9873 8.69531 23.4326 7.61133 24.5264 6.76172ZM12.5 13.0703C13.6328 13.0898 15.2637 11.6445 16.084 11.0488C22.5635 6.34668 23.0566 5.93652 24.5508 4.76465C24.834 4.54492 25 4.20313 25 3.8418V2.91406C25 1.62012 23.9502 0.570312 22.6562 0.570312H2.34375C1.0498 0.570312 0 1.62012 0 2.91406V3.8418C0 4.20313 0.166016 4.54004 0.449219 4.76465C1.94336 5.93164 2.43652 6.34668 8.91602 11.0488C9.73633 11.6445 11.3672 13.0898 12.5 13.0703Z" fill="white"/>
</svg>
