<svg width="57" height="57" viewBox="0 0 57 57" fill="none" xmlns="http://www.w3.org/2000/svg">
<path d="M19.7363 10.9717H32.882V12.7242H19.7363V10.9717Z" fill="#BB141B"/>
<path d="M32.8818 44.2744H35.5111V46.0269H32.8818V44.2744Z" fill="#BB141B"/>
<path d="M21.4888 44.2744H27.6235V46.0269H21.4888V44.2744Z" fill="#BB141B"/>
<path d="M32.0059 47.7793H38.1406V49.5318H32.0059V47.7793Z" fill="#BB141B"/>
<path d="M18.8604 47.7793H26.7477V49.5318H18.8604V47.7793Z" fill="#BB141B"/>
<path d="M54.6601 19.5053C54.5396 19.3084 54.3422 19.1657 54.1121 19.1218L49.5442 18.1029L49.5447 3.08472C49.5447 2.60288 49.1502 2.20844 48.6684 2.20844L10.0965 2.20801C8.65059 2.20801 7.46729 3.39131 7.46729 4.83724V52.1617C7.46729 53.6076 8.65059 54.791 10.0965 54.791H48.6572C49.1391 54.791 49.5335 54.3965 49.5335 53.9147V37.5038C50.4429 37.2298 51.133 36.4849 51.3408 35.5647L54.7698 20.1624C54.8246 19.9437 54.7811 19.7028 54.6603 19.5053H54.6601ZM10.0965 3.9606H47.7811V5.71313H10.0965C9.61469 5.71313 9.22026 5.31869 9.22026 4.83686C9.21982 4.35502 9.61426 3.9606 10.0965 3.9606ZM9.21982 52.1612V7.31269C9.50467 7.41141 9.80038 7.4662 10.0961 7.4662H47.7807V17.7088L38.9075 15.7371C40.0908 14.8934 40.3643 13.2505 39.5098 12.0672C38.6661 10.8839 37.0232 10.6103 35.8399 11.4649C34.6566 12.3194 34.383 13.9515 35.2376 15.1348C35.4345 15.4196 35.6868 15.6497 35.9825 15.8358L35.6211 17.457C33.4959 16.0767 31.0311 15.3534 28.5005 15.3648C21.2376 15.3648 15.3548 21.2474 15.3548 28.5104C15.3548 35.7732 21.2374 41.656 28.5005 41.656C29.0919 41.656 29.6838 41.6121 30.2751 41.5356L27.7011 53.0369H10.0968C9.61453 53.0369 9.22009 52.6425 9.22009 52.1606L9.21982 52.1612ZM50.1685 32.7601C49.9167 32.6066 49.6428 32.4861 49.3471 32.4204L45.9294 31.6538L34.8105 29.178L35.9716 23.9634L51.3628 27.4032L50.1685 32.7601ZM17.1074 28.4988C17.1074 27.6116 17.2061 26.7349 17.414 25.8695H22.7269C22.4751 27.6113 22.4751 29.3859 22.7269 31.1276H17.414C17.2057 30.2622 17.1074 29.3858 17.1074 28.4988ZM34.1417 24.1166H33.9334C33.3198 21.6408 32.1917 19.3185 30.6249 17.3029C32.29 17.6095 33.8564 18.2888 35.2258 19.2968L34.1417 24.1166ZM32.1148 24.1166H24.8846C25.5639 21.6626 26.8015 19.3951 28.4997 17.4999C30.1979 19.395 31.436 21.663 32.1149 24.1166H32.1148ZM23.0664 24.1166H17.9836C19.4626 20.578 22.6176 18.0257 26.3749 17.3029C24.8081 19.3185 23.68 21.6408 23.0664 24.1166ZM23.0664 32.8806C23.68 35.3564 24.8081 37.6787 26.3749 39.6943C22.6063 38.9711 19.4626 36.4188 17.9836 32.8806H23.0664ZM28.8616 39.8808C26.9772 37.9196 25.6078 35.5099 24.885 32.8806H32.1918L30.6802 39.6833C30.0775 39.7929 29.4752 39.8695 28.8616 39.8808ZM32.5749 31.1277H24.5014C24.2274 29.3859 24.2274 27.6113 24.5014 25.8696H33.7473L32.5749 31.1277ZM37.3734 14.4763C36.8915 14.4763 36.4971 14.0819 36.4971 13.6C36.4971 13.1182 36.8915 12.7238 37.3734 12.7238C37.8552 12.7238 38.2496 13.1182 38.2496 13.6C38.2496 14.0819 37.8661 14.4763 37.3734 14.4763ZM29.4969 53.037L32.1479 41.1294C35.7738 40.0887 38.7645 37.5365 40.3857 34.1292L38.797 33.3734C37.5372 36.0135 35.3132 38.0622 32.5966 39.1137L34.4262 30.8867L44.6905 33.1763L44.1208 35.7399C44.0112 36.2108 44.3178 36.6818 44.7892 36.7805L47.7908 37.4489L47.7912 53.0371L29.4969 53.037ZM48.5797 35.8491L46.0161 35.2794L46.3997 33.5703L48.9632 34.14C49.4342 34.2496 49.7299 34.7097 49.6316 35.1806C49.5325 35.6521 49.0615 35.9587 48.5797 35.8491ZM51.7456 25.6943L36.3434 22.2653L37.4719 17.2151L52.8741 20.6441L51.7456 25.6943Z" fill="#BB141B"/>
</svg>
