<svg width="23" height="22" viewBox="0 0 23 22" fill="none" xmlns="http://www.w3.org/2000/svg">
<path d="M11.5046 5.33081C8.39917 5.33081 5.89429 7.83569 5.89429 10.9412C5.89429 14.0466 8.39917 16.5515 11.5046 16.5515C14.6101 16.5515 17.115 14.0466 17.115 10.9412C17.115 7.83569 14.6101 5.33081 11.5046 5.33081ZM11.5046 14.5886C9.4978 14.5886 7.85718 12.9529 7.85718 10.9412C7.85718 8.92944 9.49292 7.2937 11.5046 7.2937C13.5164 7.2937 15.1521 8.92944 15.1521 10.9412C15.1521 12.9529 13.5115 14.5886 11.5046 14.5886ZM18.6531 5.10132C18.6531 5.82886 18.0671 6.40991 17.3445 6.40991C16.6169 6.40991 16.0359 5.82397 16.0359 5.10132C16.0359 4.37866 16.6218 3.79272 17.3445 3.79272C18.0671 3.79272 18.6531 4.37866 18.6531 5.10132ZM22.3689 6.42944C22.2859 4.67651 21.8855 3.12378 20.6013 1.84448C19.322 0.565185 17.7693 0.164795 16.0164 0.0769043C14.2097 -0.0256348 8.79468 -0.0256348 6.98804 0.0769043C5.23999 0.159912 3.68726 0.560303 2.40308 1.8396C1.1189 3.1189 0.723389 4.67163 0.635498 6.42456C0.532959 8.2312 0.532959 13.6462 0.635498 15.4529C0.718506 17.2058 1.1189 18.7585 2.40308 20.0378C3.68726 21.3171 5.23511 21.7175 6.98804 21.8054C8.79468 21.908 14.2097 21.908 16.0164 21.8054C17.7693 21.7224 19.322 21.322 20.6013 20.0378C21.8806 18.7585 22.281 17.2058 22.3689 15.4529C22.4714 13.6462 22.4714 8.23608 22.3689 6.42944ZM20.0349 17.3914C19.6541 18.3484 18.9167 19.0857 17.9548 19.4714C16.5144 20.0427 13.0964 19.9109 11.5046 19.9109C9.91284 19.9109 6.48999 20.0378 5.05444 19.4714C4.09741 19.0906 3.36011 18.3533 2.97437 17.3914C2.40308 15.9509 2.53491 12.533 2.53491 10.9412C2.53491 9.34937 2.40796 5.92651 2.97437 4.49097C3.35522 3.53394 4.09253 2.79663 5.05444 2.41089C6.49487 1.8396 9.91284 1.97144 11.5046 1.97144C13.0964 1.97144 16.5193 1.84448 17.9548 2.41089C18.9119 2.79175 19.6492 3.52905 20.0349 4.49097C20.6062 5.9314 20.4744 9.34937 20.4744 10.9412C20.4744 12.533 20.6062 15.9558 20.0349 17.3914Z" fill="white"/>
</svg>
