<svg width="57" height="57" viewBox="0 0 57 57" fill="none" xmlns="http://www.w3.org/2000/svg">
<path d="M39.468 36.0382C38.9989 36.0382 38.618 35.6458 38.618 35.1603V30.6052H17.2194V33.7912C17.2194 34.2761 16.8391 34.669 16.3695 34.669C15.9004 34.669 15.5195 34.2766 15.5195 33.7912V29.7274C15.5195 29.2425 15.8999 28.8496 16.3695 28.8496H39.468C39.9371 28.8496 40.3179 29.242 40.3179 29.7274V35.1603C40.3179 35.6458 39.9375 36.0382 39.4684 36.0382H39.468Z" fill="#BB141B"/>
<path d="M16.3731 30.6058H11.216C8.40444 30.6058 6.11719 28.2436 6.11719 25.3399V10.2659C6.11719 7.36221 8.40444 5 11.216 5H16.3731C16.8422 5 17.223 5.3924 17.223 5.87781V29.7285C17.223 30.2139 16.8426 30.6063 16.3731 30.6063V30.6058ZM11.2164 6.7551C9.34223 6.7551 7.81705 8.32979 7.81705 10.2659V25.3399C7.81705 27.276 9.34177 28.8507 11.2164 28.8507H15.5236V6.75439L11.2164 6.7551Z" fill="#BB141B"/>
<path d="M26.1252 30.6067C26.015 30.6067 25.903 30.5845 25.795 30.5373C22.6506 29.1653 20.6191 26.0025 20.6191 22.4788C20.6191 17.6543 24.42 13.7285 29.0918 13.7285C33.7635 13.7285 37.5644 17.6539 37.5644 22.4788C37.5644 26.0025 35.5329 29.1657 32.3885 30.5373C31.957 30.7256 31.4583 30.5169 31.2746 30.0704C31.0923 29.6248 31.2944 29.1097 31.7267 28.9209C34.2403 27.8238 35.8644 25.2955 35.8644 22.4792C35.8644 18.6223 32.8262 15.4845 29.0917 15.4845C25.3568 15.4845 22.3185 18.6223 22.3185 22.4792C22.3185 25.2954 23.9427 27.8242 26.4562 28.9209C26.8886 29.1093 27.0911 29.6248 26.9083 30.0713C26.7712 30.4054 26.4562 30.6067 26.1251 30.6067L26.1252 30.6067Z" fill="#BB141B"/>
<path d="M29.0948 15.4847C28.8695 15.4847 28.6535 15.3921 28.494 15.2274L23.5811 10.1535C23.2831 9.8458 23.2482 9.35994 23.4996 9.01012L25.6981 5.94769C25.8581 5.72465 26.1113 5.59277 26.3805 5.59277H31.8091C32.0784 5.59277 32.3315 5.72465 32.4915 5.94769L34.6901 9.01012C34.941 9.35994 34.9065 9.84581 34.6085 10.1535L29.6961 15.2274C29.5366 15.3921 29.3202 15.4847 29.0948 15.4847ZM25.3012 9.44737L29.0953 13.3658L32.8889 9.44737L31.3816 7.34838H26.8084L25.3012 9.44737Z" fill="#BB141B"/>
<path d="M27.3394 42.6315C27.1127 42.6315 26.8838 42.6204 26.653 42.5973L18.4725 41.8069C18.0052 41.7616 17.6616 41.334 17.7059 40.8514C17.7494 40.3678 18.1585 40.0087 18.6312 40.0587L26.8121 40.85C28.2153 40.9856 29.5291 40.5742 30.5058 39.6872C30.9462 39.2901 31.3047 38.8112 31.5448 38.298C31.7173 37.9551 31.8396 37.5932 31.9301 37.1694C31.9301 37.1481 31.9387 37.0736 31.94 37.0518C31.9776 36.5266 31.5883 36.1037 31.0134 36.0491L17.0039 34.6942C15.7731 34.5734 14.5683 34.8834 13.609 35.5622L5.32675 41.3571C4.93784 41.6287 4.40869 41.5241 4.14613 41.122C3.88312 40.7208 3.98484 40.1748 4.37329 39.9032L12.6515 34.1115C13.9348 33.2032 15.5378 32.79 17.1624 32.945L31.172 34.2999C32.6591 34.4438 33.7411 35.7098 33.635 37.1813C33.6377 37.2609 33.6211 37.4085 33.5879 37.5552C33.467 38.1235 33.2945 38.6274 33.0633 39.085C32.7353 39.7861 32.2344 40.4589 31.625 41.0076C30.4592 42.0654 28.9569 42.6313 27.3395 42.6313L27.3394 42.6315Z" fill="#BB141B"/>
<path d="M5.99323 54.9996C5.72753 54.9996 5.46631 54.8719 5.30054 54.6317C5.02812 54.2366 5.11683 53.6891 5.49903 53.4068L9.96697 50.1154C10.0024 50.0895 10.04 50.0664 10.079 50.046C10.5002 49.8286 10.9755 49.7332 11.4505 49.7837L26.7309 51.2598C27.8367 51.3672 28.8695 51.0506 29.637 50.3667C29.6585 50.3468 29.6813 50.3292 29.7046 50.3117L52.2181 34.0341C51.0582 32.3104 48.8564 31.6668 47.2117 32.5857L35.0947 38.1089L32.7151 39.4485C32.3024 39.679 31.7867 39.5221 31.5627 39.0964C31.3382 38.6702 31.491 38.1371 31.9032 37.9057L34.3455 36.5342L46.4625 31.011C48.8753 29.6594 52.176 30.6538 53.7608 33.2627C53.9114 33.5001 53.9996 33.8087 53.9996 34.1174C53.9996 34.5496 53.8173 34.96 53.4983 35.2446C53.4763 35.2645 53.4535 35.283 53.4297 35.3001L30.7132 51.7258C29.5958 52.7031 28.1257 53.1589 26.5719 53.008L11.2915 51.5314C11.1535 51.5133 11.0146 51.5383 10.8909 51.5915L6.48617 54.8367C6.33697 54.9459 6.16447 54.9992 5.99376 54.9992L5.99323 54.9996ZM52.3255 34.2028C52.3269 34.2056 52.3282 34.2079 52.33 34.2107C52.3286 34.2079 52.3273 34.2051 52.3255 34.2028Z" fill="#BB141B"/>
</svg>
