<svg width="20" height="25" viewBox="0 0 20 25" fill="none" xmlns="http://www.w3.org/2000/svg">
<path d="M8.87051 24.4956C1.77588 14.2105 0.458984 13.1549 0.458984 9.375C0.458984 4.19731 4.6563 0 9.83398 0C15.0117 0 19.209 4.19731 19.209 9.375C19.209 13.1549 17.8921 14.2105 10.7975 24.4956C10.3319 25.1682 9.33604 25.1681 8.87051 24.4956ZM9.83398 13.2812C11.9914 13.2812 13.7402 11.5324 13.7402 9.375C13.7402 7.21763 11.9914 5.46875 9.83398 5.46875C7.67661 5.46875 5.92773 7.21763 5.92773 9.375C5.92773 11.5324 7.67661 13.2812 9.83398 13.2812Z" fill="white"/>
</svg>
