<svg width="26" height="25" viewBox="0 0 26 25" fill="none" xmlns="http://www.w3.org/2000/svg">
<path d="M24.9526 17.6656L19.4839 15.3218C19.2503 15.2223 18.9906 15.2013 18.744 15.262C18.4975 15.3228 18.2773 15.462 18.1167 15.6587L15.6948 18.6177C11.8939 16.8256 8.83506 13.7668 7.04297 9.96587L10.002 7.54399C10.1991 7.38368 10.3386 7.16351 10.3994 6.91682C10.4602 6.67013 10.4389 6.41035 10.3389 6.1768L7.99512 0.708053C7.88531 0.4563 7.6911 0.250751 7.44597 0.126852C7.20085 0.00295173 6.92017 -0.0315334 6.65234 0.0293424L1.57422 1.20122C1.316 1.26085 1.08562 1.40624 0.920671 1.61366C0.755725 1.82109 0.665956 2.07829 0.666016 2.34331C0.666016 14.8677 10.8174 24.9996 23.3223 24.9996C23.5874 24.9997 23.8447 24.91 24.0522 24.7451C24.2597 24.5801 24.4052 24.3497 24.4648 24.0914L25.6367 19.0132C25.6972 18.7441 25.662 18.4623 25.5371 18.2163C25.4123 17.9704 25.2056 17.7756 24.9526 17.6656Z" fill="white"/>
</svg>
