<svg width="25" height="20" viewBox="0 0 25 20" fill="none" xmlns="http://www.w3.org/2000/svg">
<path d="M24.3751 16.8753H0.625111C0.279799 16.8753 0.00011104 17.155 0.00011104 17.5003V18.7503C0.00011104 19.0956 0.279799 19.3753 0.625111 19.3753H24.3751C24.7204 19.3753 25.0001 19.0956 25.0001 18.7503V17.5003C25.0001 17.155 24.7204 16.8753 24.3751 16.8753ZM3.1466 12.7061C3.39191 12.9733 3.73644 13.1249 4.09699 13.1245L9.1962 13.1175C9.59862 13.1169 9.99526 13.0217 10.354 12.8393L21.7196 7.07177C22.7642 6.54169 23.7005 5.78505 24.3376 4.79403C25.0528 3.68153 25.1306 2.87645 24.8482 2.3077C24.5665 1.73856 23.8818 1.32059 22.5728 1.23544C21.4068 1.15966 20.247 1.46669 19.2025 1.99638L15.3544 3.94911L6.81144 0.743641C6.70872 0.674445 6.58939 0.633941 6.46577 0.626318C6.34216 0.618696 6.21875 0.64423 6.10831 0.700282L3.53996 2.0038C3.12316 2.21513 3.02238 2.77138 3.338 3.11825L9.44034 6.95028L5.4087 8.99638L2.58253 7.57177C2.48516 7.52268 2.37762 7.49717 2.26857 7.4973C2.15953 7.49744 2.05204 7.52321 1.9548 7.57255L0.38722 8.36825C-0.0205921 8.57528 -0.128014 9.11513 0.169642 9.46513L3.1466 12.7061Z" fill="white"/>
</svg>
