<svg width="25" height="22" viewBox="0 0 25 22" fill="none" xmlns="http://www.w3.org/2000/svg">
<path d="M22.4302 5.85322C22.446 6.07529 22.446 6.29741 22.446 6.51948C22.446 13.2929 17.2906 21.0975 7.86802 21.0975C4.96509 21.0975 2.26841 20.2567 0 18.7974C0.412451 18.845 0.808984 18.8608 1.2373 18.8608C3.63257 18.8608 5.83755 18.0519 7.59834 16.6718C5.3458 16.6242 3.45811 15.1489 2.80771 13.1185C3.125 13.166 3.44224 13.1978 3.77539 13.1978C4.2354 13.1978 4.69546 13.1343 5.12373 13.0233C2.77603 12.5474 1.01519 10.4852 1.01519 7.99473V7.9313C1.69727 8.31201 2.49048 8.54995 3.33115 8.58164C1.95107 7.66157 1.04692 6.09116 1.04692 4.3145C1.04692 3.36274 1.30068 2.49028 1.74487 1.72886C4.26709 4.83799 8.05835 6.86841 12.3096 7.09053C12.2303 6.70981 12.1827 6.31328 12.1827 5.9167C12.1827 3.09307 14.4669 0.792969 17.3064 0.792969C18.7816 0.792969 20.1141 1.41162 21.05 2.41099C22.208 2.18892 23.3184 1.7606 24.302 1.17368C23.9212 2.36343 23.1122 3.36279 22.0494 3.99727C23.0805 3.88628 24.0799 3.60068 24.9999 3.20415C24.302 4.21934 23.4295 5.12349 22.4302 5.85322Z" fill="white"/>
</svg>
