<svg width="25" height="18" viewBox="0 0 25 18" fill="none" xmlns="http://www.w3.org/2000/svg">
<path d="M23.8569 3.2191C23.5842 2.19262 22.781 1.3842 21.7612 1.10985C19.9127 0.611328 12.5003 0.611328 12.5003 0.611328C12.5003 0.611328 5.08798 0.611328 3.23941 1.10985C2.21957 1.38424 1.41636 2.19262 1.14375 3.2191C0.648438 5.07964 0.648438 8.9615 0.648438 8.9615C0.648438 8.9615 0.648438 12.8434 1.14375 14.7039C1.41636 15.7304 2.21957 16.5051 3.23941 16.7795C5.08798 17.278 12.5003 17.278 12.5003 17.278C12.5003 17.278 19.9126 17.278 21.7612 16.7795C22.781 16.5051 23.5842 15.7304 23.8569 14.7039C24.3522 12.8434 24.3522 8.9615 24.3522 8.9615C24.3522 8.9615 24.3522 5.07964 23.8569 3.2191ZM10.076 12.4859V5.43707L16.2713 8.96159L10.076 12.4859Z" fill="white"/>
</svg>
